<?xml version="1.0" standalone="no"?>
<!DOCTYPE svg PUBLIC "-//W3C//DTD SVG 20010904//EN"
 "http://www.w3.org/TR/2001/REC-SVG-20010904/DTD/svg10.dtd">
<svg version="1.0" xmlns="http://www.w3.org/2000/svg"
 width="192.000000pt" height="192.000000pt" viewBox="0 0 192.000000 192.000000"
 preserveAspectRatio="xMidYMid meet">
<metadata>
Created by potrace 1.16, written by Peter Selinger 2001-2019
</metadata>
<g transform="translate(0.000000,192.000000) scale(0.100000,-0.100000)"
fill="#000000" stroke="none">
<path d="M758 1861 c-173 -38 -318 -115 -450 -240 -189 -179 -286 -393 -296
-657 -4 -100 0 -140 17 -223 64 -297 245 -530 515 -661 149 -72 190 -80 421
-80 193 0 198 0 291 31 354 118 604 429 646 804 20 178 -9 338 -91 510 -121
254 -341 433 -626 511 -95 26 -319 28 -427 5z m440 -50 c154 -45 297 -134 409
-256 62 -67 142 -188 158 -240 4 -11 -12 14 -35 55 -203 364 -616 535 -1014
420 -83 -24 -111 -41 -113 -70 -2 -28 -22 -52 -37 -43 -8 5 -8 3 0 -8 9 -11 7
-21 -6 -44 -10 -16 -22 -29 -28 -28 -6 2 -9 -6 -7 -17 5 -28 -157 -190 -185
-185 -11 2 -19 -1 -17 -7 1 -6 -11 -18 -28 -28 -23 -13 -33 -15 -44 -6 -11 8
-13 8 -8 0 9 -16 -15 -34 -49 -37 -22 -1 -33 -10 -46 -37 -12 -24 -16 -27 -12
-10 4 14 20 52 36 85 124 248 362 424 648 479 14 2 88 3 165 1 106 -2 158 -8
213 -24z m-155 -657 c15 -5 17 -16 15 -77 l-3 -72 -95 0 -95 0 -3 68 c-4 92 2
98 91 91 40 -3 80 -7 90 -10z m-483 -301 l12 -48 17 45 c13 35 22 46 41 48 25
3 25 1 25 -68 0 -66 -1 -70 -23 -70 -21 0 -22 4 -18 38 l6 37 -17 -37 c-20
-48 -46 -50 -61 -5 l-12 32 5 -32 c4 -29 2 -33 -18 -33 -21 0 -22 4 -22 70 0
69 0 70 26 70 23 0 28 -6 39 -47z"/>
</g>
</svg>
