<?xml version="1.0" standalone="no"?>
<!DOCTYPE svg PUBLIC "-//W3C//DTD SVG 20010904//EN"
 "http://www.w3.org/TR/2001/REC-SVG-20010904/DTD/svg10.dtd">
<svg version="1.0" xmlns="http://www.w3.org/2000/svg"
 width="192.000000pt" height="192.000000pt" viewBox="0 0 192.000000 192.000000"
 preserveAspectRatio="xMidYMid meet">
<metadata>
Created by potrace 1.16, written by Peter Selinger 2001-2019
</metadata>
<g transform="translate(0.000000,192.000000) scale(0.100000,-0.100000)"
fill="#000000" stroke="none">
<path d="M232 1739 c-26 -13 -55 -39 -70 -62 l-27 -41 -3 -680 c-2 -497 0
-692 9 -724 14 -52 72 -107 128 -122 27 -7 252 -10 708 -8 655 3 669 3 708 24
22 11 54 41 70 65 l30 44 0 685 c0 377 -3 697 -7 712 -12 40 -57 89 -103 109
-38 17 -82 19 -720 19 -675 0 -680 0 -723 -21z m1428 -34 c16 -8 34 -24 40
-34 15 -30 12 -38 -6 -13 -36 52 -34 52 -581 52 -501 0 -508 0 -521 -20 -7
-12 -18 -18 -25 -13 -9 5 -9 3 -1 -8 9 -11 7 -21 -6 -44 -10 -16 -22 -29 -28
-28 -6 2 -9 -6 -7 -17 5 -28 -157 -190 -185 -185 -11 2 -19 -1 -17 -7 1 -6
-11 -18 -28 -28 -22 -13 -34 -15 -45 -7 -8 6 -12 7 -8 3 9 -11 -10 -36 -27
-36 -20 0 -21 300 -1 339 34 64 -7 61 739 61 585 0 682 -2 707 -15z m-622
-580 c9 -3 12 -22 10 -62 l-3 -58 -87 -3 -88 -3 0 59 c0 32 5 63 11 69 11 11
123 9 157 -2z"/>
</g>
</svg>
